<svg width="15" height="18" viewBox="0 0 15 18" fill="none" xmlns="http://www.w3.org/2000/svg">
<path d="M13.6909 7.54545C13.6909 12.6364 7.14543 17 7.14543 17C7.14543 17 0.599976 12.6364 0.599976 7.54545C0.599976 5.80949 1.28958 4.14463 2.51709 2.91712C3.74461 1.68961 5.40947 1 7.14543 1C8.88139 1 10.5463 1.68961 11.7738 2.91712C13.0013 4.14463 13.6909 5.80949 13.6909 7.54545Z" stroke="#769763" stroke-linecap="round" stroke-linejoin="round"/>
<path d="M7.14544 9.72728C8.35043 9.72728 9.32726 8.75045 9.32726 7.54547C9.32726 6.34048 8.35043 5.36365 7.14544 5.36365C5.94046 5.36365 4.96362 6.34048 4.96362 7.54547C4.96362 8.75045 5.94046 9.72728 7.14544 9.72728Z" stroke="#769763" stroke-linecap="round" stroke-linejoin="round"/>
</svg>
