<svg width="12" height="13" viewBox="0 0 12 13" fill="none" xmlns="http://www.w3.org/2000/svg">
<path d="M7.71209 2.64409C7.71205 2.13686 7.89187 1.64604 8.21956 1.25887C8.54726 0.871696 9.00162 0.613249 9.50188 0.529459C10.0021 0.445669 10.5159 0.541962 10.9519 0.801227C11.3879 1.06049 11.7178 1.46593 11.883 1.9455C12.0483 2.42506 12.0382 2.94768 11.8544 3.42048C11.6707 3.89327 11.3253 4.28562 10.8796 4.52779C10.4339 4.76996 9.91682 4.84627 9.42018 4.74314C8.92354 4.64002 8.47954 4.36416 8.1671 3.96457L4.21166 5.94229C4.30927 6.30633 4.30927 6.68965 4.21166 7.05369L8.16881 9.03312C8.49677 8.61565 8.96806 8.33483 9.4913 8.2451C10.0145 8.15536 10.5525 8.26311 11.0008 8.54745C11.4491 8.83179 11.7759 9.27247 11.9177 9.78404C12.0596 10.2956 12.0065 10.8416 11.7686 11.3163C11.5308 11.7909 11.1252 12.1603 10.6304 12.3529C10.1357 12.5454 9.58712 12.5474 9.09099 12.3585C8.59487 12.1696 8.18657 11.8031 7.94526 11.3303C7.70395 10.8574 7.64681 10.3118 7.78492 9.79919L3.82777 7.81975C3.55271 8.1704 3.17515 8.42653 2.74766 8.55248C2.32017 8.67842 1.86405 8.66791 1.44282 8.52241C1.02159 8.37691 0.656218 8.10366 0.397602 7.74072C0.138987 7.37778 0 6.94322 0 6.49756C0 6.05191 0.138987 5.61735 0.397602 5.25441C0.656218 4.89147 1.02159 4.61822 1.44282 4.47271C1.86405 4.32721 2.32017 4.3167 2.74766 4.44265C3.17515 4.56859 3.55271 4.82473 3.82777 5.17537L7.78407 3.19851C7.73601 3.01763 7.71181 2.83125 7.71209 2.64409ZM9.85604 1.35704C9.51481 1.35704 9.18755 1.49259 8.94626 1.73388C8.70497 1.97517 8.56941 2.30243 8.56941 2.64367C8.56941 2.9849 8.70497 3.31216 8.94626 3.55345C9.18755 3.79474 9.51481 3.9303 9.85604 3.9303C10.1973 3.9303 10.5245 3.79474 10.7658 3.55345C11.0071 3.31216 11.1427 2.9849 11.1427 2.64367C11.1427 2.30243 11.0071 1.97517 10.7658 1.73388C10.5245 1.49259 10.1973 1.35704 9.85604 1.35704ZM9.85433 9.06911C9.51343 9.06911 9.1865 9.20453 8.94545 9.44558C8.7044 9.68663 8.56898 10.0136 8.56898 10.3545C8.56898 10.6954 8.7044 11.0223 8.94545 11.2633C9.1865 11.5044 9.51343 11.6398 9.85433 11.6398C10.1952 11.6398 10.5222 11.5044 10.7632 11.2633C11.0043 11.0223 11.1397 10.6954 11.1397 10.3545C11.1397 10.0136 11.0043 9.68663 10.7632 9.44558C10.5222 9.20453 10.1952 9.06911 9.85433 9.06911ZM0.856911 6.49842C0.856911 6.66721 0.890157 6.83435 0.954752 6.9903C1.01935 7.14624 1.11402 7.28794 1.23338 7.4073C1.35273 7.52665 1.49443 7.62133 1.65038 7.68592C1.80632 7.75052 1.97346 7.78376 2.14226 7.78376C2.31105 7.78376 2.47819 7.75052 2.63414 7.68592C2.79008 7.62133 2.93178 7.52665 3.05113 7.4073C3.17049 7.28794 3.26517 7.14624 3.32976 6.9903C3.39436 6.83435 3.4276 6.66721 3.4276 6.49842C3.4276 6.15752 3.29218 5.83059 3.05113 5.58954C2.81008 5.34849 2.48315 5.21307 2.14226 5.21307C1.80136 5.21307 1.47443 5.34849 1.23338 5.58954C0.99233 5.83059 0.856911 6.15752 0.856911 6.49842Z" fill="#737373"/>
</svg>
