<svg width="18" height="18" viewBox="0 0 18 18" fill="none" xmlns="http://www.w3.org/2000/svg">
<path d="M7.84339 4.3928L5.13699 1.26881C4.82499 0.908805 4.25299 0.910405 3.89059 1.27361L1.66499 3.5032C1.00259 4.1664 0.812986 5.15121 1.19619 5.94081C3.48548 10.6808 7.30822 14.5089 12.045 16.8048C12.8338 17.188 13.8178 16.9984 14.4802 16.3352L16.7266 14.0848C17.0906 13.7208 17.0914 13.1456 16.7282 12.8336L13.5922 10.1416C13.2642 9.86 12.7546 9.8968 12.4258 10.2264L11.3346 11.3192C11.2787 11.3778 11.2052 11.4163 11.1253 11.4291C11.0453 11.4418 10.9635 11.4279 10.8922 11.3896C9.10854 10.3625 7.62898 8.88099 6.60419 7.09601C6.56581 7.02461 6.55191 6.94259 6.56463 6.86253C6.57734 6.78247 6.61597 6.7088 6.67459 6.6528L7.76259 5.56401C8.09219 5.23281 8.12819 4.7208 7.84339 4.392V4.3928Z" stroke="#769763" stroke-width="1.5" stroke-linecap="round" stroke-linejoin="round"/>
</svg>
